<svg xmlns="http://www.w3.org/2000/svg" enable-background="new 0 0 100 100" viewBox="0 0 100 100" width="100" height="100"><path fill="#fff" d="M90.025,64.425v1.601c0,1.932-0.854,3.664-2.304,4.835c-1.205,0.974-2.821,1.56-4.7,1.553H15.778c-1.334,0.007-2.654-0.58-3.697-1.554c-1.253-1.171-2.107-2.902-2.107-4.834v-1.601H90.025z"/><path fill="#ffb827" d="M15.746,74.015c-1.756,0-3.557-0.786-4.939-2.16c-1.546-1.538-2.433-3.663-2.433-5.828v-3.202h83.253v3.202c0,2.098-0.811,4.061-2.284,5.528c-1.594,1.588-3.825,2.461-6.286,2.461c-0.014,0-0.028,0-0.041,0H15.778C15.767,74.015,15.757,74.015,15.746,74.015z M11.575,66.027c0,1.319,0.543,2.616,1.489,3.558c0.791,0.787,1.781,1.231,2.705,1.229h67.252c0.009,0,0.019,0,0.028,0c1.615,0,3.044-0.542,4.034-1.527c0.865-0.862,1.341-2.02,1.341-3.26H11.575z"/><path fill="#fff" d="M90.025,24.383v40.042H9.975V24.383c0-1.957,0.877-3.709,2.259-4.883c1.116-0.949,2.563-1.521,4.144-1.521h67.244c1.581,0,3.027,0.572,4.144,1.521C89.149,20.675,90.025,22.426,90.025,24.383z"/><path fill="#ffb827" d="M90.025,66.027H9.975c-0.884,0-1.601-0.717-1.601-1.601V24.383c0-4.414,3.591-8.005,8.005-8.005h67.244c4.414,0,8.005,3.591,8.005,8.005v24.016c0,0.884-0.717,1.601-1.601,1.601c-0.884,0-1.601-0.717-1.601-1.601V24.383c0-2.648-2.154-4.803-4.803-4.803H16.378c-2.648,0-4.803,2.155-4.803,4.803v38.441h76.849v-8.021c0-0.884,0.717-1.601,1.601-1.601c0.884,0,1.601,0.717,1.601,1.601v9.622C91.627,65.309,90.91,66.027,90.025,66.027z"/><path fill="#fff8aa" d="M34.809,78.818h30.419l2.402,3.202h9.587l-6.09-8.526c-1.202-1.683-3.143-2.682-5.211-2.682H34.083c-2.068,0-4.009,0.999-5.211,2.682l-6.09,8.526h9.626L34.809,78.818z"/><path fill="#ffb827" d="M77.218,83.622H67.63c-0.504,0-0.979-0.237-1.28-0.64l-1.922-2.562H35.61l-1.922,2.562c-0.301,0.403-0.776,0.64-1.28,0.64h-9.625c-0.6,0-1.149-0.335-1.423-0.868c-0.274-0.533-0.228-1.175,0.121-1.663l6.09-8.526c1.498-2.099,3.933-3.352,6.513-3.352h31.833c2.58,0,5.015,1.253,6.514,3.353l6.089,8.525c0.349,0.488,0.395,1.13,0.121,1.663C78.367,83.286,77.817,83.622,77.218,83.622z M68.431,80.42h5.675l-4.282-5.994c-0.899-1.259-2.36-2.011-3.908-2.011H34.083c-1.548,0-3.009,0.752-3.908,2.011l-4.282,5.994h5.713l1.921-2.562c0.302-0.403,0.777-0.64,1.28-0.64h30.42c0.504,0,0.978,0.238,1.28,0.64L68.431,80.42z"/><g><path fill="#1193ff" d="M35.702,47.372c-0.089,0-0.179-0.007-0.27-0.023l-6.439-1.096c-0.473-0.08-0.885-0.369-1.123-0.786c-0.237-0.417-0.275-0.918-0.103-1.366l5.019-13.071c0.95-2.473,3.734-3.711,6.206-2.762c2.472,0.949,3.711,3.733,2.763,6.205l-4.558,11.872C36.956,46.971,36.355,47.372,35.702,47.372z M31.458,43.424l3.22,0.548l4.088-10.647c0.316-0.824-0.097-1.752-0.921-2.068c-0.825-0.316-1.753,0.096-2.069,0.921L31.458,43.424z"/><path fill="#fff" d="M33.116,43.569l-6.346-0.856l1.873-13.876c0.236-1.752,1.849-2.982,3.601-2.745l0,0c1.752,0.237,2.982,1.849,2.745,3.601L33.116,43.569z"/><path fill="#1193ff" d="M33.116,45.171c-0.071,0-0.143-0.004-0.215-0.014l-6.346-0.857c-0.877-0.118-1.491-0.925-1.373-1.801l1.873-13.875c0.172-1.271,0.828-2.4,1.849-3.178c1.02-0.778,2.284-1.113,3.554-0.939c1.272,0.172,2.4,0.828,3.178,1.848c0.778,1.02,1.111,2.282,0.94,3.554l-1.873,13.875c-0.057,0.421-0.279,0.801-0.617,1.059C33.806,45.057,33.465,45.171,33.116,45.171z M28.571,41.34l3.172,0.428l1.659-12.289c0.058-0.424-0.054-0.844-0.313-1.185c-0.259-0.34-0.635-0.559-1.059-0.616c-0.426-0.058-0.845,0.054-1.185,0.313c-0.34,0.259-0.558,0.635-0.615,1.059L28.571,41.34z"/><path fill="#fff" d="M28.236,48.399h-6.404V27.585c0-1.768,1.433-3.202,3.202-3.202l0,0c1.768,0,3.202,1.434,3.202,3.202V48.399z"/><path fill="#1193ff" d="M28.236,50h-6.404c-0.884,0-1.601-0.717-1.601-1.601V27.585c0-2.648,2.154-4.803,4.803-4.803c2.648,0,4.803,2.154,4.803,4.803v20.814C29.837,49.283,29.12,50,28.236,50z M23.433,46.798h3.202V27.585c0-0.883-0.719-1.601-1.601-1.601c-0.883,0-1.601,0.718-1.601,1.601V46.798z"/><path fill="#fff" d="M34.177,50.024c-0.689,1.155-2.068,1.854-3.56,1.471c-1.143-0.293-2.061-1.24-2.306-2.395c-0.44-2.075,1.13-3.904,3.128-3.904c1.159,0,2.174,0.635,2.735,1.57c0.594,0.991,1.631,1.632,2.787,1.632l0,0c2.478,0,4.015-2.693,2.764-4.832c-1.735-2.965-5.002-4.926-8.71-4.765c-4.942,0.215-9.011,4.324-9.176,9.267c-0.183,5.456,4.186,9.936,9.601,9.936c3.571,0,6.686-1.967,8.341-4.871c1.203-2.111-0.386-4.736-2.815-4.736h-0.004C35.806,48.399,34.768,49.034,34.177,50.024z"/><path fill="#1193ff" d="M31.438 59.606c-3.065 0-5.926-1.213-8.057-3.417-2.13-2.203-3.247-5.106-3.144-8.174.194-5.811 4.897-10.561 10.707-10.813 4.161-.174 8.05 1.948 10.161 5.556.883 1.507.891 3.312.022 4.826-.168.293-.362.563-.578.808.22.246.418.519.59.815.86 1.479.872 3.244.03 4.72C39.174 57.43 35.444 59.606 31.438 59.606zM31.433 40.394c-.117 0-.233.002-.35.007-4.08.177-7.509 3.641-7.646 7.722-.073 2.193.724 4.267 2.246 5.84 1.522 1.574 3.566 2.441 5.755 2.441 2.858 0 5.522-1.556 6.95-4.062.388-.682.117-1.295-.018-1.526C38.075 50.305 37.548 50 36.964 50c-.57 0-1.096.315-1.412.844-1.105 1.852-3.248 2.736-5.333 2.203-1.738-.446-3.102-1.865-3.474-3.613-.307-1.446.043-2.924.96-4.056.917-1.132 2.278-1.781 3.734-1.781 1.665 0 3.24.9 4.108 2.348.321.535.848.854 1.414.854.837 0 1.251-.563 1.39-.806.139-.244.418-.889-.008-1.616C36.891 41.897 34.267 40.394 31.433 40.394zM31.438 46.798c-.486 0-.939.217-1.246.595-.18.222-.46.696-.316 1.375.119.56.576 1.033 1.138 1.177.859.221 1.501-.261 1.787-.74 0 0 0 0 0-.001.174-.292.374-.562.595-.806-.222-.245-.421-.515-.597-.807C32.502 47.094 31.993 46.798 31.438 46.798zM78.168 30.788h-5.674c-.884 0-1.601-.717-1.601-1.601 0-.884.717-1.601 1.601-1.601h5.674c.884 0 1.601.717 1.601 1.601C79.769 30.071 79.052 30.788 78.168 30.788zM66.09 30.788H53.282c-.884 0-1.601-.717-1.601-1.601 0-.884.717-1.601 1.601-1.601H66.09c.884 0 1.601.717 1.601 1.601C67.691 30.071 66.974 30.788 66.09 30.788zM63.759 56.404h-13.68c-.884 0-1.6-.717-1.6-1.601 0-.884.717-1.601 1.6-1.601h13.68c.884 0 1.6.717 1.6 1.601C65.36 55.687 64.643 56.404 63.759 56.404zM77.297 43.596h-4.803c-.884 0-1.601-.717-1.601-1.601s.717-1.601 1.601-1.601h4.803c.884 0 1.601.717 1.601 1.601S78.181 43.596 77.297 43.596zM66.09 43.596h-4.803c-.884 0-1.601-.717-1.601-1.601s.717-1.601 1.601-1.601h4.803c.884 0 1.601.717 1.601 1.601S66.974 43.596 66.09 43.596zM54.883 43.596h-4.803c-.884 0-1.6-.717-1.6-1.601s.717-1.601 1.6-1.601h4.803c.884 0 1.601.717 1.601 1.601S55.767 43.596 54.883 43.596zM72.494 37.192h-8.005c-.884 0-1.601-.717-1.601-1.601 0-.884.717-1.601 1.601-1.601h8.005c.884 0 1.601.717 1.601 1.601C74.095 36.475 73.378 37.192 72.494 37.192zM58.085 37.192h-8.005c-.884 0-1.6-.717-1.6-1.601 0-.884.717-1.601 1.6-1.601h8.005c.884 0 1.601.717 1.601 1.601C59.686 36.475 58.969 37.192 58.085 37.192zM72.494 50h-8.005c-.884 0-1.601-.717-1.601-1.601 0-.884.717-1.601 1.601-1.601h8.005c.884 0 1.601.717 1.601 1.601C74.095 49.283 73.378 50 72.494 50zM58.085 50h-8.005c-.884 0-1.6-.717-1.6-1.601 0-.884.717-1.601 1.6-1.601h8.005c.884 0 1.601.717 1.601 1.601C59.686 49.283 58.969 50 58.085 50z"/></g></svg>